<svg data-v-0dd9719b="" version="1.0" xmlns="http://www.w3.org/2000/svg" xmlns:xlink="http://www.w3.org/1999/xlink" width="100%" height="100%" viewBox="0 0 340.000000 250.000000" preserveAspectRatio="xMidYMid meet" color-interpolation-filters="sRGB" style="margin: auto;"> <rect data-v-0dd9719b="" x="0" y="0" width="100%" height="100%" fill="#fff" fill-opacity="1" class="background"></rect> <rect data-v-0dd9719b="" x="0" y="0" width="100%" height="100%" fill="url(#watermark)" fill-opacity="1" class="watermarklayer"></rect> <g data-v-0dd9719b="" fill="#133359" class="icon-text-wrapper icon-svg-group iconsvg" transform="translate(52.02000427246094,95)"><g class="iconsvg-imagesvg" transform="translate(0,0)"><g><rect fill="#133359" fill-opacity="0" stroke-width="2" x="0" y="0" width="60" height="60" class="image-rect"></rect> <svg x="0" y="0" width="60" height="60" filtersec="colorsb19488553" class="image-svg-svg primary" style="overflow: visible;"><svg xmlns="http://www.w3.org/2000/svg" viewBox="0 0 194.82000732421875 194.82000732421875"><g><g fill-rule="evenodd"><path fill="#133359" d="M194.82 15.46v179.36H72.15l97.94-97.94-14.51-14.52L43.12 194.82H15.46L194.82 15.46z"></path><path fill="#fe7c30" d="M0 0h122.68L24.73 97.94l14.51 14.51L151.7 0h29.55L0 181.25V0z"></path></g></g></svg></svg> <!----></g></g> <g transform="translate(67,2.183748245239258)"><g data-gra="path-name" fill-rule="" class="tp-name iconsvg-namesvg" transform="translate(0,0)"><g transform="scale(1)"><g><path d="M39.59-31.38L39.59-31.38 28.97-31.38 28.64-32.54 33.12-32.54 35.82-36.11Q38.93-33.7 40.8-32.04L40.8-32.04Q40.63-31.38 39.59-31.38ZM7.51-36.36L7.51-36.36 14.15-33.16Q13.86-32.41 12.58-32.46L12.58-32.46Q10.58-30.46 7.53-28.39 4.48-26.31 1.45-24.94L1.45-24.94 1.08-25.36Q2.95-27.56 4.75-30.73 6.56-33.91 7.51-36.36ZM23.49-18.84L23.49-13.95 25.23-13.95 25.23-18.84 23.49-18.84ZM19.59-18.84L17.97-18.84 17.97-13.95 19.59-13.95 19.59-18.84ZM22.25-29.84L22.25-29.84 20.3-29.84Q19.13-27.93 17.64-26.11L17.64-26.11 18.51-25.77 21.29-25.77Q21.83-28.1 22.25-29.84ZM19.59-24.57L17.97-24.57 17.97-20 19.59-20 19.59-24.57ZM25.23-20L25.23-24.57 23.49-24.57 23.49-20 25.23-20ZM30.21-22.99L34.16-22.99 37.02-26.73Q40.22-24.24 42.17-22.5L42.17-22.5Q41.96-21.79 40.96-21.79L40.96-21.79 38.64-21.79 38.64-2.37Q38.64-0.87 38.39 0.12 38.14 1.12 37.44 1.99 36.73 2.86 35.3 3.34 33.87 3.82 31.63 3.98L31.63 3.98Q31.54 2.03 31.11 1.04 30.67 0.04 29.59-0.66L29.59-0.66Q29.22 0.83 27.75 1.29 26.27 1.74 24.57 0.54L24.57 0.54Q24.32-2.08 22.7-4.9L22.7-4.9Q21.67-1.91 18.93 0.29 16.19 2.49 10.79 4.03L10.79 4.03 10.46 3.36Q14.07 1.29 15.75-1.18 17.43-3.65 17.93-6.85L17.93-6.85 11.66-6.85 11.29-8.05 18.1-8.05Q18.22-9.38 18.3-12.08L18.3-12.08 25.15-11.62Q24.99-10.58 23.7-10.46L23.7-10.46Q23.53-8.8 23.41-8.05L23.41-8.05 24.9-8.05 27.6-11.54Q30.59-9.13 32.37-7.51L32.37-7.51Q32.25-6.85 31.25-6.85L31.25-6.85 23.2-6.85Q23.16-6.72 23.12-6.43 23.08-6.14 23.03-5.98L23.03-5.98Q26.11-5.52 27.75-4.38 29.38-3.24 29.63-1.87L29.63-1.87Q31.79-1.78 32.08-1.78L32.08-1.78Q32.95-1.78 32.95-2.53L32.95-2.53 32.95-21.79 30.21-21.79 30.21-12.91Q30.21-12.74 29.55-12.43 28.89-12.12 27.89-11.87 26.89-11.62 26.15-11.62L26.15-11.62 25.23-11.62 25.23-12.74 17.97-12.74Q17.97-12.49 17.51-12.04 17.06-11.58 16.1-11.16 15.15-10.75 14.03-10.75L14.03-10.75 13.12-10.75 13.12-21.79Q12.66-21.42 11.66-20.75L11.66-20.75 11.16-21.08Q12.33-23.12 12.95-24.4L12.95-24.4 12.41-24.4Q10.67-22.04 8.84-19.96L8.84-19.96 11.91-18.84Q11.62-18.18 10.54-18.01L10.54-18.01 10.54 2.45Q10.5 2.66 9.86 3.01 9.21 3.36 8.11 3.65 7.01 3.94 6.02 3.94L6.02 3.94 5.02 3.94 5.02-16.1Q3.15-14.4 0.75-12.74L0.75-12.74 0.33-13.12Q2.49-16.19 4.52-20.57 6.56-24.94 7.64-28.39L7.64-28.39 13.41-25.36Q15.81-30.67 16.93-36.4L16.93-36.4 23.82-34.07Q23.53-33.2 22.16-33.24L22.16-33.24Q21.75-32.33 21-31.04L21-31.04 21.96-31.04 24.49-33.54 28.85-29.63Q28.35-29.14 27.23-29.09L27.23-29.09Q24.94-27.35 22.5-25.77L22.5-25.77 24.94-25.77 27.02-27.89 31.21-24.78Q30.92-24.4 30.21-24.24L30.21-24.24 30.21-22.99ZM52.75-13.24L52.75-13.24 60.26-8.92Q59.85-8.13 58.35-8.43L58.35-8.43Q52.71-1.58 43.66 1.78L43.66 1.78 43.29 1.45Q45.9-1.16 48.5-5.13 51.09-9.09 52.75-13.24ZM70.68-12.49L70.68-12.49 71.01-12.74Q79.36-10.96 82.18-6.56L82.18-6.56Q83.96-3.82 82.88-1.54L82.88-1.54Q82.01 0.33 79.98 0.29L79.98 0.29Q78.77 0.25 77.53-0.58L77.53-0.58Q75.74-6.14 70.68-12.49ZM60.1-28.6L73.63-28.6 77.16-33.2Q81.14-30.13 83.51-28.1L83.51-28.1Q83.3-27.39 82.22-27.39L82.22-27.39 59.56-27.39Q57.57-22.87 54.83-16.98L54.83-16.98 61.59-16.98 61.59-24.45 69.31-23.78Q69.19-22.95 67.98-22.79L67.98-22.79 67.98-16.98 72.01-16.98 75.41-21.37Q79.23-18.43 81.47-16.44L81.47-16.44Q81.31-15.77 80.23-15.77L80.23-15.77 67.98-15.77 67.98-2.95Q67.98-1.25 67.73-0.19 67.49 0.87 66.7 1.81 65.91 2.74 64.37 3.22 62.84 3.69 60.35 3.9L60.35 3.9Q60.14 0.83 59.35-0.33L59.35-0.33Q58.35-1.78 55.66-2.28L55.66-2.28 55.66-2.82Q59.85-2.53 60.76-2.53L60.76-2.53Q61.59-2.53 61.59-3.2L61.59-3.2 61.59-15.77 54.49-15.77 52.88-13.99 47.11-17.31Q47.52-17.72 48.39-18.3L48.39-18.3Q50.34-21.87 52.75-27.39L52.75-27.39 44.24-27.39 43.91-28.6 53.25-28.6Q55.49-33.87 56.32-36.65L56.32-36.65 64.17-34.41Q63.83-33.33 62.26-33.49L62.26-33.49Q60.89-30.42 60.1-28.6L60.1-28.6ZM95.79-11.04L95.79-11.04 102.31-7.18Q101.93-6.47 100.69-6.68L100.69-6.68Q98.12-4.23 94.3-2.03 90.48 0.17 86.29 1.41L86.29 1.41 86 0.95Q88.98-1.33 91.7-4.71 94.42-8.09 95.79-11.04ZM99.44-23.16L99.44-15.48 113.1-15.48 113.1-23.16 99.44-23.16ZM113.1-11.99L113.1-14.28 109.45-14.28 109.45-3.03Q109.45 0.33 107.97 2.01 106.5 3.69 101.93 4.03L101.93 4.03Q101.81 0.95 100.98-0.25L100.98-0.25Q99.94-1.7 97.29-2.2L97.29-2.2 97.29-2.74Q101.44-2.45 102.35-2.45L102.35-2.45Q103.14-2.45 103.14-3.15L103.14-3.15 103.14-14.28 99.44-14.28 99.44-13.12Q99.44-12.82 98.65-12.39 97.87-11.95 96.56-11.6 95.25-11.25 94.09-11.25L94.09-11.25 93.22-11.25 93.22-26.81 99.78-24.36 112.68-24.36 115.42-27.35 121.15-23.08Q120.65-22.41 119.49-22.16L119.49-22.16 119.49-13.57Q119.45-13.41 118.6-13.03 117.75-12.66 116.46-12.33 115.17-11.99 114.18-11.99L114.18-11.99 113.1-11.99ZM111.56-9.42L111.56-9.42 111.85-9.67Q120.2-9.01 123.23-5.15L123.23-5.15Q125.01-2.86 124.1-0.75L124.1-0.75Q123.31 1.04 121.32 1.08L121.32 1.08Q120.32 1.08 119.2 0.54L119.2 0.54Q116.96-4.36 111.56-9.42ZM109.36-29.8L116.88-29.8 120.15-34.03Q123.89-31.21 126.09-29.3L126.09-29.3Q125.88-28.6 124.89-28.6L124.89-28.6 87.12-28.6 86.78-29.8 102.97-29.8 102.97-36.15 110.9-35.61Q110.82-34.61 109.36-34.37L109.36-34.37 109.36-29.8ZM160.79-19.47L160.79-24.11 157.22-24.11 157.22-19.47 160.79-19.47ZM157.22-18.26L157.22-13.53 160.79-13.53 160.79-18.26 157.22-18.26ZM148.46-18.26L148.46-13.53 151.7-13.53 151.7-18.26 148.46-18.26ZM151.7-19.47L151.7-24.11 148.46-24.11 148.46-19.47 151.7-19.47ZM158.67-32.33L158.67-32.33 142.73-32.33 142.32-33.54 159.08-33.54 162.16-36.52 167.22-31.67Q166.76-31.21 165.52-31.17L165.52-31.17Q162.24-29.8 157.84-28.85L157.84-28.85Q159.08-27.89 159.06-26.96 159.04-26.02 158.09-25.28L158.09-25.28 160.37-25.28 162.9-28.18 168.3-24.07Q167.76-23.37 166.6-23.16L166.6-23.16 166.6-9.34Q166.6-6.47 165.46-5.21 164.31-3.94 160.54-3.61L160.54-3.61Q160.45-6.35 160.12-7.18L160.12-7.18Q159.67-8.43 158.3-8.72L158.3-8.72 158.3-9.26Q159.58-9.17 160.16-9.17L160.16-9.17Q160.79-9.17 160.79-9.84L160.79-9.84 160.79-12.33 157.22-12.33 157.22-5.4Q157.22-5.23 156.72-4.96 156.22-4.69 155.1-4.44 153.98-4.19 152.69-4.19L152.69-4.19 151.7-4.19 151.7-12.33 148.46-12.33 148.46-5.81Q148.46-5.31 146.84-4.61 145.22-3.9 143.56-3.9L143.56-3.9 142.73-3.9 142.73-27.68 148.75-25.28 153.48-25.28Q153.23-25.44 153.15-25.52L153.15-25.52Q151.16-28.72 146.84-30.26L146.84-30.26 147.01-30.75Q153.07-30.75 156.18-29.68L156.18-29.68Q158.09-31.58 158.67-32.33ZM131.24-35.4L131.24-35.4 131.53-35.65Q137.88-36.11 139.99-33.41L139.99-33.41Q141.24-31.79 140.32-30.09L140.32-30.09Q139.45-28.51 137.54-28.64L137.54-28.64Q136.84-28.68 136.13-29.01L136.13-29.01Q134.76-32.29 131.24-35.4ZM129.33-26.56L129.33-26.56 129.62-26.81Q136.17-27.43 138.37-24.65L138.37-24.65Q139.74-23.03 138.83-21.29L138.83-21.29Q137.96-19.63 135.97-19.76L135.97-19.76Q135.3-19.8 134.56-20.09L134.56-20.09Q133.81-21.75 132.34-23.53 130.86-25.32 129.33-26.56ZM139.41-12.7L139.41-12.7 139.41-5.44Q141.53-3.53 144.12-3.01 146.72-2.49 152.9-2.49L152.9-2.49Q162.61-2.49 169.29-2.7L169.29-2.7 169.29-2.2Q165.77-1.29 165.39 2.99L165.39 2.99 152.98 2.99Q146.72 2.99 143.85 1.45 140.99-0.08 138.91-4.86L138.91-4.86Q135.72-0.33 132.6 2.91L132.6 2.91Q132.56 3.65 131.77 3.94L131.77 3.94 128.79-2.57Q129.04-2.66 133.64-4.11L133.64-4.11 133.64-13.49 128.91-13.49 128.66-14.69 132.98-14.69 135.76-18.34 141.65-13.7Q140.95-12.91 139.41-12.7Z" transform="translate(-0.33000001311302185, 36.650001525878906)"></path></g> <!----> <!----> <!----> <!----> <!----> <!----> <!----></g></g> <g data-gra="path-slogan" fill-rule="" class="tp-slogan iconsvg-slogansvg" fill="#133359" transform="translate(17.56499481201172,47.68000030517578)"><!----> <!----> <g transform="scale(1, 1)"><g transform="scale(1)"><path d="M2.06-5.06L6.56-5.06L6.56-8.58L7.73-8.58L7.73 0L6.56 0L6.56-3.98L2.06-3.98L2.06 0L0.89 0L0.89-8.58L2.06-8.58L2.06-5.06ZM10.83-1.03L15.98-1.03L15.98 0L9.66 0L9.66-8.58L15.89-8.58L15.89-7.59L10.83-7.59L10.83-4.92L15.52-4.92L15.52-3.89L10.83-3.89L10.83-1.03ZM18.89-8.58L23.20-1.64L23.20-8.58L24.33-8.58L24.33 0L23.02 0L18.66-6.94L18.61-6.94L18.61 0L17.48 0L17.48-8.58L18.89-8.58ZM32.53-3.61L29.91-3.61L29.91-4.59L33.66-4.59L33.66 0L32.91 0L32.63-1.08Q31.64 0.09 29.81 0.14L29.81 0.14Q28.08 0.14 27.14-0.75L27.14-0.75Q25.73-2.06 25.78-4.36L25.78-4.36Q26.11-8.63 29.86-8.81L29.86-8.81Q33.05-8.63 33.52-6L33.52-6L32.39-6Q31.92-7.78 29.81-7.83L29.81-7.83Q27.14-7.64 27-4.31L27-4.31Q27-0.75 29.86-0.75L29.86-0.75Q30.89-0.75 31.64-1.31L31.64-1.31Q32.58-2.06 32.53-3.61L32.53-3.61ZM38.95 0L35.48 0L35.48-8.58L39-8.58Q42.47-8.39 42.61-4.41L42.61-4.41Q42.42-0.09 38.95 0L38.95 0ZM38.81-7.64L36.66-7.64L36.66-0.98L38.91-0.98Q41.34-1.13 41.44-4.31L41.44-4.31Q41.39-7.55 38.81-7.64L38.81-7.64ZM50.86-4.27L50.86-4.27Q50.67-7.64 47.86-7.83L47.86-7.83Q45-7.69 44.86-4.27L44.86-4.27Q45-0.94 47.86-0.80L47.86-0.80Q50.67-0.98 50.86-4.27ZM52.03-4.27L52.03-4.27Q51.75 0 47.86 0.14L47.86 0.14Q43.92 0 43.64-4.27L43.64-4.27Q43.88-8.72 47.86-8.81L47.86-8.81Q51.75-8.67 52.03-4.27ZM54.80-8.58L59.11-1.64L59.11-8.58L60.23-8.58L60.23 0L58.92 0L54.56-6.94L54.52-6.94L54.52 0L53.39 0L53.39-8.58L54.80-8.58ZM68.44-3.61L65.81-3.61L65.81-4.59L69.56-4.59L69.56 0L68.81 0L68.53-1.08Q67.55 0.09 65.72 0.14L65.72 0.14Q63.98 0.14 63.05-0.75L63.05-0.75Q61.64-2.06 61.69-4.36L61.69-4.36Q62.02-8.63 65.77-8.81L65.77-8.81Q68.95-8.63 69.42-6L69.42-6L68.30-6Q67.83-7.78 65.72-7.83L65.72-7.83Q63.05-7.64 62.91-4.31L62.91-4.31Q62.91-0.75 65.77-0.75L65.77-0.75Q66.80-0.75 67.55-1.31L67.55-1.31Q68.48-2.06 68.44-3.61L68.44-3.61ZM73.97-1.92L73.97-2.77L75.05-2.77L75.05-2.16Q75.05-0.75 76.36-0.75L76.36-0.75Q77.72-0.75 77.72-2.25L77.72-2.25L77.72-8.58L78.89-8.58L78.89-2.30Q78.84 0.09 76.41 0.14L76.41 0.14Q74.11 0.09 73.97-1.92L73.97-1.92ZM80.86-8.58L82.03-8.58L82.03 0L80.86 0L80.86-8.58ZM85.41-8.58L89.72-1.64L89.72-8.58L90.84-8.58L90.84 0L89.53 0L85.17-6.94L85.13-6.94L85.13 0L84 0L84-8.58L85.41-8.58ZM99.05-3.61L96.42-3.61L96.42-4.59L100.17-4.59L100.17 0L99.42 0L99.14-1.08Q98.16 0.09 96.33 0.14L96.33 0.14Q94.59 0.14 93.66-0.75L93.66-0.75Q92.25-2.06 92.30-4.36L92.30-4.36Q92.63-8.63 96.38-8.81L96.38-8.81Q99.56-8.63 100.03-6L100.03-6L98.91-6Q98.44-7.78 96.33-7.83L96.33-7.83Q93.66-7.64 93.52-4.31L93.52-4.31Q93.52-0.75 96.38-0.75L96.38-0.75Q97.41-0.75 98.16-1.31L98.16-1.31Q99.09-2.06 99.05-3.61L99.05-3.61ZM104.16-7.59L101.25-7.59L101.25-8.58L108.19-8.58L108.19-7.59L105.28-7.59L105.28 0L104.16 0L104.16-7.59ZM116.02-4.27L116.02-4.27Q115.83-7.64 113.02-7.83L113.02-7.83Q110.16-7.69 110.02-4.27L110.02-4.27Q110.16-0.94 113.02-0.80L113.02-0.80Q115.83-0.98 116.02-4.27ZM117.19-4.27L117.19-4.27Q116.91 0 113.02 0.14L113.02 0.14Q109.08 0 108.80-4.27L108.80-4.27Q109.03-8.72 113.02-8.81L113.02-8.81Q116.91-8.67 117.19-4.27ZM119.95-8.58L124.27-1.64L124.27-8.58L125.39-8.58L125.39 0L124.08 0L119.72-6.94L119.67-6.94L119.67 0L118.55 0L118.55-8.58L119.95-8.58ZM133.59-3.61L130.97-3.61L130.97-4.59L134.72-4.59L134.72 0L133.97 0L133.69-1.08Q132.70 0.09 130.88 0.14L130.88 0.14Q129.14 0.14 128.20-0.75L128.20-0.75Q126.80-2.06 126.84-4.36L126.84-4.36Q127.17-8.63 130.92-8.81L130.92-8.81Q134.11-8.63 134.58-6L134.58-6L133.45-6Q132.98-7.78 130.88-7.83L130.88-7.83Q128.20-7.64 128.06-4.31L128.06-4.31Q128.06-0.75 130.92-0.75L130.92-0.75Q131.95-0.75 132.70-1.31L132.70-1.31Q133.64-2.06 133.59-3.61L133.59-3.61Z" transform="translate(-0.890625, 8.8125)"></path></g></g></g></g></g><defs v-gra="od"></defs></svg>